<mxfile host="app.diagrams.net" modified="2023-05-09T09:26:07.071Z" agent="Mozilla/5.0 (Windows NT 10.0; Win64; x64) AppleWebKit/537.36 (KHTML, like Gecko) Chrome/113.0.0.0 Safari/537.36 Edg/113.0.1774.35" version="21.2.9" etag="EOUoq4_J2mmqIy-nFY3o" type="github">
  <diagram name="第 1 页" id="MX5P-lAkvF0IpO4uEPio">
    <mxGraphModel>
      <root>
        <mxCell id="0" />
        <mxCell id="1" parent="0" />
      </root>
    </mxGraphModel>
  </diagram>
</mxfile>
